<mxfile host="app.diagrams.net" modified="2024-07-15T20:05:39.504Z" agent="Mozilla/5.0 (Windows NT 10.0; Win64; x64) AppleWebKit/537.36 (KHTML, like Gecko) Chrome/126.0.0.0 Safari/537.36 Edg/126.0.0.0" etag="IGtZNHv2OReKtG5w1NsW" version="24.6.5" type="github">
  <diagram name="Page-1" id="LbHbzQar9Z4XUlH0dd1j">
    <mxGraphModel dx="1173" dy="822" grid="1" gridSize="10" guides="1" tooltips="1" connect="1" arrows="1" fold="1" page="1" pageScale="1" pageWidth="850" pageHeight="1100" math="0" shadow="0">
      <root>
        <mxCell id="0" />
        <mxCell id="1" parent="0" />
      </root>
    </mxGraphModel>
  </diagram>
</mxfile>
